<mxfile host="app.diagrams.net" modified="2023-01-03T14:53:04.140Z" agent="5.0 (X11; Linux x86_64) AppleWebKit/537.36 (KHTML, like Gecko) Chrome/108.0.0.0 Safari/537.36" version="20.8.0" etag="M8r8M4SuNwVHloizCxiZ" type="github">
  <diagram id="OI0vriiOYw0IQjDCD2Af" name="Page-1">
    <mxGraphModel dx="683" dy="382" grid="0" gridSize="10" guides="1" tooltips="1" connect="1" arrows="1" fold="1" page="1" pageScale="1" pageWidth="850" pageHeight="1100" math="0" shadow="0">
      <root>
        <mxCell id="0" />
        <mxCell id="1" parent="0" />
        <mxCell id="9HK9v7CUVEXX_2H5XjDw-4" value="" style="html=1;shadow=0;dashed=0;align=center;verticalAlign=middle;shape=mxgraph.arrows2.uTurnArrow;dy=0.71;arrowHead=10;dx2=11.72;rotation=-15;flipV=1;strokeWidth=1;fillColor=#dae8fc;strokeColor=#6c8ebf;" vertex="1" parent="1">
          <mxGeometry x="70" y="310" width="10" height="40" as="geometry" />
        </mxCell>
        <mxCell id="9HK9v7CUVEXX_2H5XjDw-5" value="" style="rounded=0;whiteSpace=wrap;html=1;rotation=-30;" vertex="1" parent="1">
          <mxGeometry x="75" y="270" width="190" height="10" as="geometry" />
        </mxCell>
        <mxCell id="9HK9v7CUVEXX_2H5XjDw-6" value="" style="shape=flexArrow;endArrow=classic;html=1;rounded=0;width=1.627906976744186;endSize=3.4186046511627906;endWidth=6.830719307733911;fillColor=#f8cecc;strokeColor=#b85450;" edge="1" parent="1">
          <mxGeometry width="50" height="50" relative="1" as="geometry">
            <mxPoint x="95" y="320" as="sourcePoint" />
            <mxPoint x="145" y="320" as="targetPoint" />
          </mxGeometry>
        </mxCell>
        <mxCell id="9HK9v7CUVEXX_2H5XjDw-7" value="" style="shape=flexArrow;endArrow=classic;html=1;rounded=0;width=1.627906976744186;endSize=3.4186046511627906;endWidth=6.830719307733911;fillColor=#f8cecc;strokeColor=#b85450;" edge="1" parent="1">
          <mxGeometry width="50" height="50" relative="1" as="geometry">
            <mxPoint x="85.00000000000011" y="30" as="sourcePoint" />
            <mxPoint x="185" y="30" as="targetPoint" />
          </mxGeometry>
        </mxCell>
        <mxCell id="9HK9v7CUVEXX_2H5XjDw-8" value="U&lt;font style=&quot;font-size: 8px;&quot;&gt;1&lt;/font&gt; (X)" style="text;html=1;strokeColor=#b85450;fillColor=#f8cecc;align=center;verticalAlign=middle;whiteSpace=wrap;rounded=0;strokeWidth=1;" vertex="1" parent="1">
          <mxGeometry x="155" y="310" width="40" height="20" as="geometry" />
        </mxCell>
        <mxCell id="9HK9v7CUVEXX_2H5XjDw-9" value="U&lt;font style=&quot;font-size: 8px;&quot;&gt;2&lt;/font&gt; (Y)" style="text;html=1;strokeColor=#82b366;fillColor=#d5e8d4;align=center;verticalAlign=middle;whiteSpace=wrap;rounded=0;strokeWidth=1;" vertex="1" parent="1">
          <mxGeometry x="45" y="250" width="40" height="20" as="geometry" />
        </mxCell>
        <mxCell id="9HK9v7CUVEXX_2H5XjDw-10" value="" style="shape=flexArrow;endArrow=classic;html=1;rounded=0;width=1.627906976744186;endSize=3.4186046511627906;endWidth=6.830719307733911;fillColor=#d5e8d4;strokeColor=#82b366;" edge="1" parent="1">
          <mxGeometry width="50" height="50" relative="1" as="geometry">
            <mxPoint x="95" y="320" as="sourcePoint" />
            <mxPoint x="95" y="270" as="targetPoint" />
          </mxGeometry>
        </mxCell>
        <mxCell id="9HK9v7CUVEXX_2H5XjDw-11" value="U&lt;font style=&quot;font-size: 8px;&quot;&gt;6&lt;/font&gt; (RZ)" style="text;html=1;strokeColor=#6c8ebf;fillColor=#dae8fc;align=center;verticalAlign=middle;whiteSpace=wrap;rounded=0;strokeWidth=1;" vertex="1" parent="1">
          <mxGeometry x="20" y="350" width="55" height="20" as="geometry" />
        </mxCell>
        <mxCell id="9HK9v7CUVEXX_2H5XjDw-12" value="" style="html=1;shadow=0;dashed=0;align=center;verticalAlign=middle;shape=mxgraph.arrows2.uTurnArrow;dy=0.71;arrowHead=10;dx2=11.72;rotation=-195;flipV=1;strokeWidth=1;fillColor=#dae8fc;strokeColor=#6c8ebf;" vertex="1" parent="1">
          <mxGeometry x="265" y="200" width="10" height="40" as="geometry" />
        </mxCell>
        <mxCell id="9HK9v7CUVEXX_2H5XjDw-13" value="" style="shape=flexArrow;endArrow=classic;html=1;rounded=0;width=1.627906976744186;endSize=3.4186046511627906;endWidth=6.830719307733911;fillColor=#f8cecc;strokeColor=#b85450;" edge="1" parent="1">
          <mxGeometry width="50" height="50" relative="1" as="geometry">
            <mxPoint x="245" y="230" as="sourcePoint" />
            <mxPoint x="295" y="230" as="targetPoint" />
          </mxGeometry>
        </mxCell>
        <mxCell id="9HK9v7CUVEXX_2H5XjDw-14" value="U&lt;font style=&quot;font-size: 8px;&quot;&gt;7&lt;/font&gt;" style="text;html=1;strokeColor=#b85450;fillColor=#f8cecc;align=center;verticalAlign=middle;whiteSpace=wrap;rounded=0;strokeWidth=1;" vertex="1" parent="1">
          <mxGeometry x="305" y="220" width="40" height="20" as="geometry" />
        </mxCell>
        <mxCell id="9HK9v7CUVEXX_2H5XjDw-15" value="U&lt;font style=&quot;font-size: 8px;&quot;&gt;8&lt;/font&gt;" style="text;html=1;strokeColor=#82b366;fillColor=#d5e8d4;align=center;verticalAlign=middle;whiteSpace=wrap;rounded=0;strokeWidth=1;" vertex="1" parent="1">
          <mxGeometry x="195" y="160" width="40" height="20" as="geometry" />
        </mxCell>
        <mxCell id="9HK9v7CUVEXX_2H5XjDw-16" value="" style="shape=flexArrow;endArrow=classic;html=1;rounded=0;width=1.627906976744186;endSize=3.4186046511627906;endWidth=6.830719307733911;fillColor=#d5e8d4;strokeColor=#82b366;" edge="1" parent="1">
          <mxGeometry width="50" height="50" relative="1" as="geometry">
            <mxPoint x="245" y="230" as="sourcePoint" />
            <mxPoint x="245" y="180" as="targetPoint" />
          </mxGeometry>
        </mxCell>
        <mxCell id="9HK9v7CUVEXX_2H5XjDw-17" value="U&lt;span style=&quot;font-size: 8px;&quot;&gt;12&lt;/span&gt;" style="text;html=1;strokeColor=#6c8ebf;fillColor=#dae8fc;align=center;verticalAlign=middle;whiteSpace=wrap;rounded=0;strokeWidth=1;" vertex="1" parent="1">
          <mxGeometry x="275" y="180" width="55" height="20" as="geometry" />
        </mxCell>
        <mxCell id="9HK9v7CUVEXX_2H5XjDw-18" value="&lt;b&gt;&lt;font style=&quot;font-size: 14px;&quot;&gt;Global Plan View&lt;/font&gt;&lt;/b&gt;" style="text;html=1;strokeColor=#666666;fillColor=#f5f5f5;align=center;verticalAlign=middle;whiteSpace=wrap;rounded=0;strokeWidth=1;fontSize=8;fontColor=#333333;" vertex="1" parent="1">
          <mxGeometry x="160" y="370" width="130" height="30" as="geometry" />
        </mxCell>
        <mxCell id="9HK9v7CUVEXX_2H5XjDw-19" value="" style="html=1;shadow=0;dashed=0;align=center;verticalAlign=middle;shape=mxgraph.arrows2.uTurnArrow;dy=0.71;arrowHead=10;dx2=11.72;rotation=-15;flipV=1;strokeWidth=1;fillColor=#dae8fc;strokeColor=#6c8ebf;" vertex="1" parent="1">
          <mxGeometry x="540" y="310" width="10" height="40" as="geometry" />
        </mxCell>
        <mxCell id="9HK9v7CUVEXX_2H5XjDw-20" value="" style="rounded=0;whiteSpace=wrap;html=1;rotation=-30;" vertex="1" parent="1">
          <mxGeometry x="545" y="270" width="190" height="10" as="geometry" />
        </mxCell>
        <mxCell id="9HK9v7CUVEXX_2H5XjDw-22" value="u&lt;font style=&quot;font-size: 8px;&quot;&gt;1&lt;/font&gt;" style="text;html=1;strokeColor=#b85450;fillColor=#f8cecc;align=center;verticalAlign=middle;whiteSpace=wrap;rounded=0;strokeWidth=1;" vertex="1" parent="1">
          <mxGeometry x="610" y="300" width="40" height="20" as="geometry" />
        </mxCell>
        <mxCell id="9HK9v7CUVEXX_2H5XjDw-23" value="w&lt;font style=&quot;font-size: 8px;&quot;&gt;1&lt;/font&gt;" style="text;html=1;strokeColor=#82b366;fillColor=#d5e8d4;align=center;verticalAlign=middle;whiteSpace=wrap;rounded=0;strokeWidth=1;" vertex="1" parent="1">
          <mxGeometry x="562" y="367" width="40" height="20" as="geometry" />
        </mxCell>
        <mxCell id="9HK9v7CUVEXX_2H5XjDw-25" value="phi&lt;font style=&quot;font-size: 8px;&quot;&gt;1&lt;/font&gt;" style="text;html=1;strokeColor=#6c8ebf;fillColor=#dae8fc;align=center;verticalAlign=middle;whiteSpace=wrap;rounded=0;strokeWidth=1;" vertex="1" parent="1">
          <mxGeometry x="481" y="310" width="55" height="20" as="geometry" />
        </mxCell>
        <mxCell id="9HK9v7CUVEXX_2H5XjDw-26" value="" style="html=1;shadow=0;dashed=0;align=center;verticalAlign=middle;shape=mxgraph.arrows2.uTurnArrow;dy=0.71;arrowHead=10;dx2=11.72;rotation=-195;flipV=1;strokeWidth=1;fillColor=#dae8fc;strokeColor=#6c8ebf;" vertex="1" parent="1">
          <mxGeometry x="735" y="200" width="10" height="40" as="geometry" />
        </mxCell>
        <mxCell id="9HK9v7CUVEXX_2H5XjDw-28" value="u&lt;font style=&quot;font-size: 8px;&quot;&gt;2&lt;/font&gt;" style="text;html=1;strokeColor=#b85450;fillColor=#f8cecc;align=center;verticalAlign=middle;whiteSpace=wrap;rounded=0;strokeWidth=1;" vertex="1" parent="1">
          <mxGeometry x="750" y="177" width="40" height="20" as="geometry" />
        </mxCell>
        <mxCell id="9HK9v7CUVEXX_2H5XjDw-29" value="w&lt;font style=&quot;font-size: 8px;&quot;&gt;2&lt;/font&gt;" style="text;html=1;strokeColor=#82b366;fillColor=#d5e8d4;align=center;verticalAlign=middle;whiteSpace=wrap;rounded=0;strokeWidth=1;" vertex="1" parent="1">
          <mxGeometry x="727" y="280" width="40" height="20" as="geometry" />
        </mxCell>
        <mxCell id="9HK9v7CUVEXX_2H5XjDw-31" value="U&lt;span style=&quot;font-size: 8px;&quot;&gt;12&lt;/span&gt;" style="text;html=1;strokeColor=#6c8ebf;fillColor=#dae8fc;align=center;verticalAlign=middle;whiteSpace=wrap;rounded=0;strokeWidth=1;" vertex="1" parent="1">
          <mxGeometry x="627" y="204" width="55" height="20" as="geometry" />
        </mxCell>
        <mxCell id="9HK9v7CUVEXX_2H5XjDw-32" value="&lt;b&gt;&lt;font style=&quot;font-size: 14px;&quot;&gt;Local Plan View&lt;/font&gt;&lt;/b&gt;" style="text;html=1;strokeColor=#666666;fillColor=#f5f5f5;align=center;verticalAlign=middle;whiteSpace=wrap;rounded=0;strokeWidth=1;fontSize=8;fontColor=#333333;" vertex="1" parent="1">
          <mxGeometry x="630" y="370" width="130" height="30" as="geometry" />
        </mxCell>
        <mxCell id="9HK9v7CUVEXX_2H5XjDw-21" value="" style="shape=flexArrow;endArrow=classic;html=1;rounded=0;width=1.627906976744186;endSize=3.4186046511627906;endWidth=6.830719307733911;fillColor=#f8cecc;strokeColor=#b85450;" edge="1" parent="1">
          <mxGeometry width="50" height="50" relative="1" as="geometry">
            <mxPoint x="566" y="319" as="sourcePoint" />
            <mxPoint x="609" y="294" as="targetPoint" />
          </mxGeometry>
        </mxCell>
        <mxCell id="9HK9v7CUVEXX_2H5XjDw-24" value="" style="shape=flexArrow;endArrow=classic;html=1;rounded=0;width=1.627906976744186;endSize=3.4186046511627906;endWidth=6.830719307733911;fillColor=#d5e8d4;strokeColor=#82b366;" edge="1" parent="1">
          <mxGeometry width="50" height="50" relative="1" as="geometry">
            <mxPoint x="566" y="319" as="sourcePoint" />
            <mxPoint x="591" y="363" as="targetPoint" />
          </mxGeometry>
        </mxCell>
        <mxCell id="9HK9v7CUVEXX_2H5XjDw-34" value="" style="shape=flexArrow;endArrow=classic;html=1;rounded=0;width=1.627906976744186;endSize=3.4186046511627906;endWidth=6.830719307733911;fillColor=#f8cecc;strokeColor=#b85450;" edge="1" parent="1">
          <mxGeometry width="50" height="50" relative="1" as="geometry">
            <mxPoint x="717" y="231" as="sourcePoint" />
            <mxPoint x="760" y="206" as="targetPoint" />
          </mxGeometry>
        </mxCell>
        <mxCell id="9HK9v7CUVEXX_2H5XjDw-35" value="" style="shape=flexArrow;endArrow=classic;html=1;rounded=0;width=1.627906976744186;endSize=3.4186046511627906;endWidth=6.830719307733911;fillColor=#d5e8d4;strokeColor=#82b366;" edge="1" parent="1">
          <mxGeometry width="50" height="50" relative="1" as="geometry">
            <mxPoint x="717" y="231" as="sourcePoint" />
            <mxPoint x="742" y="275" as="targetPoint" />
          </mxGeometry>
        </mxCell>
        <mxCell id="9HK9v7CUVEXX_2H5XjDw-36" value="phi&lt;font style=&quot;font-size: 8px;&quot;&gt;1&lt;/font&gt;" style="text;html=1;strokeColor=#6c8ebf;fillColor=#dae8fc;align=center;verticalAlign=middle;whiteSpace=wrap;rounded=0;strokeWidth=1;" vertex="1" parent="1">
          <mxGeometry x="422" y="435" width="55" height="20" as="geometry" />
        </mxCell>
      </root>
    </mxGraphModel>
  </diagram>
</mxfile>
